<svg width="50" height="50" viewBox="0 0 50 50" fill="none" xmlns="http://www.w3.org/2000/svg">
<path d="M38.5417 50H11.4583C5.13291 49.9931 0.00693359 44.8671 0 38.5417V11.4583C0.00693359 5.13291 5.13291 0.00693359 11.4583 0H38.5416C44.8671 0.00693359 49.9931 5.13291 50 11.4583V38.5416C49.9931 44.8671 44.8671 49.9931 38.5417 50ZM11.4583 6.25C8.58184 6.25 6.25 8.58184 6.25 11.4583V38.5416C6.25 41.4182 8.58184 43.75 11.4583 43.75H38.5416C41.4182 43.75 43.75 41.4182 43.75 38.5417V11.4583C43.75 8.58184 41.4182 6.25 38.5417 6.25H11.4583Z" fill="#20A000"/>
<path d="M20.1397 37.056C18.825 37.0569 17.5647 36.5318 16.6397 35.5977L10.4167 29.3852C9.19592 28.1652 9.19534 26.1866 10.4154 24.9658C10.4158 24.9653 10.4163 24.9648 10.4167 24.9643C11.637 23.7444 13.6152 23.7444 14.8355 24.9643L20.1397 30.2664L35.1647 15.2414C36.385 14.0214 38.3631 14.0214 39.5834 15.2414C40.8042 16.4614 40.8048 18.44 39.5848 19.6608C39.5843 19.6613 39.5838 19.6618 39.5834 19.6622L23.6376 35.6081C22.7116 36.5383 21.4522 37.0596 20.1397 37.056Z" fill="#20A000"/>
</svg>
